IKResults
version=1
nRows=13
nColumns=40
inDegrees=yes

Units are S.I. units (second, meters, Newtons, ...)
Angles are in degrees.

endheader
time	pelvis_tilt	pelvis_list	pelvis_rotation	pelvis_tx	pelvis_ty	pelvis_tz	hip_flexion_r	hip_adduction_r	hip_rotation_r	knee_angle_r	knee_angle_r_beta	ankle_angle_r	subtalar_angle_r	mtp_angle_r	hip_flexion_l	hip_adduction_l	hip_rotation_l	knee_angle_l	knee_angle_l_beta	ankle_angle_l	subtalar_angle_l	mtp_angle_l	lumbar_extension	lumbar_bending	lumbar_rotation	arm_flex_r	arm_add_r	arm_rot_r	elbow_flex_r	pro_sup_r	wrist_flex_r	wrist_dev_r	arm_flex_l	arm_add_l	arm_rot_l	elbow_flex_l	pro_sup_l	wrist_flex_l	wrist_dev_l
      0.83000000	      2.98899621	     -0.69529759	      0.52677007	      0.37329568	      0.91883555	     -1.03177540	     22.76405205	     -1.51259183	     -7.45361760	    -48.31677991	     -0.84328689	      5.81380149	    -18.30520117	     16.13757013	     -5.65038191	     -1.25523423	      9.52396415	    -12.95438137	     -0.22609661	     16.19906124	      8.57512107	      0.27564702	     -4.26075338	      1.46494630	     -6.84271004	     -7.66405677	     -9.83653615	     -1.72422048	     18.01004835	     89.95437384	      0.00000000	      0.00000000	      8.45425397	     10.65993171	     15.43141727	     25.75319136	     89.95437384	      0.00000000	      0.00000000
      0.84000000	      2.59741033	     -0.41667041	      0.47059681	      0.38347551	      0.91712008	     -1.03218598	     23.75860049	     -2.04297849	     -8.12733271	    -46.03723405	     -0.80350131	      5.91242113	    -18.08973004	     16.06094629	     -5.84651254	     -1.60030251	      9.73481299	    -13.08006237	     -0.22829015	     16.41967062	      8.46559134	      0.30026063	     -3.83331199	      1.23594827	     -6.73058286	     -8.51782212	     -9.87641251	     -1.70223087	     17.68023865	     89.95437384	      0.00000000	      0.00000000	      9.22961069	     10.73613052	     15.41733742	     26.82660687	     89.95437384	      0.00000000	      0.00000000
      0.85000000	      2.89326149	     -1.11872551	      1.03124101	      0.39389096	      0.91671700	     -1.03243726	     23.22349317	     -1.31783565	     -9.10646929	    -42.48843681	     -0.74156312	      5.57201196	    -18.25605512	     17.03210394	     -6.86979530	     -0.77933896	      8.75936934	    -13.11165804	     -0.22884160	     17.21586716	      8.96272447	      0.61173352	     -4.21034145	      2.05031625	     -7.47101523	     -8.96316239	     -9.84528898	     -2.28011131	     17.22783178	     89.95437384	      0.00000000	      0.00000000	      9.57938905	     10.88679329	     15.48199210	     28.57798659	     89.95437384	      0.00000000	      0.00000000
      0.86000000	      2.37882496	     -0.73415266	      0.84329319	      0.40396124	      0.91454241	     -1.03262049	     24.24337673	     -1.90840890	     -9.79722281	    -40.04022546	     -0.69883377	      5.48297606	    -17.93147931	     16.94588663	     -6.96576470	     -1.26119356	      8.87686672	    -13.25902730	     -0.23141368	     17.30022459	      8.80964231	      0.61245011	     -3.67487297	      1.68480361	     -7.19686198	     -9.81373287	     -9.91072153	     -2.29093660	     17.01989771	     89.95437384	      0.00000000	      0.00000000	     10.25437067	     10.90083492	     15.45309352	     29.78551961	     89.95437384	      0.00000000	      0.00000000
      0.87000000	      2.49887079	     -1.36783265	      1.28433361	      0.41457214	      0.91366444	     -1.03235826	     23.73315725	     -1.15811168	    -10.68727794	    -36.22685061	     -0.63227782	      4.71611929	    -17.96303472	     17.48441157	     -7.94926334	     -0.50111952	      8.07479581	    -13.03526288	     -0.22750826	     17.98823912	      9.35743175	      0.82388054	     -3.83297587	      2.38439246	     -7.92354457	    -10.19880498	     -9.84540946	     -2.90096450	     16.56132116	     89.95437384	      0.00000000	      0.00000000	     10.36359745	     11.12848406	     15.45776331	     31.63873426	     89.95437384	      0.00000000	      0.00000000
      0.88000000	      1.98909883	     -1.16853876	      1.24163772	      0.42474197	      0.91141346	     -1.03214598	     24.39795944	     -1.39412221	    -11.38241170	    -33.26686762	     -0.58061637	      4.12541550	    -17.43354914	     17.40847166	     -8.13169757	     -0.71456702	      8.00618230	    -13.02519253	     -0.22733250	     18.26666038	      9.27285485	      0.85364455	     -3.30357323	      2.17125048	     -7.96337519	    -10.92597318	     -9.83361665	     -3.20077841	     16.42033497	     89.95437384	      0.00000000	      0.00000000	     10.71181590	     11.25360618	     15.42576562	     33.12042138	     89.95437384	      0.00000000	      0.00000000
      0.89000000	      1.84249668	     -1.42807125	      1.37011662	      0.43505477	      0.90973938	     -1.03180020	     24.36063204	     -1.10434046	    -12.51895687	    -29.86308290	     -0.52120912	      3.34371863	    -17.16553801	     17.10200036	     -8.70059868	     -0.38650107	      7.73874432	    -13.03696000	     -0.22753788	     18.69396221	      9.50251348	      0.95985992	     -3.21429188	      2.47826852	     -8.21381122	    -11.41161688	     -9.82928417	     -3.82346125	     16.10807784	     89.95437384	      0.00000000	      0.00000000	     10.94373858	     11.33962562	     15.51876789	     34.85624065	     89.95437384	      0.00000000	      0.00000000
      0.90000000	      1.58816934	     -1.43577125	      1.43384491	      0.44557241	      0.90778978	     -1.03144943	     24.46848324	     -1.09653350	    -13.71796039	    -26.63950752	     -0.46494712	      2.65976679	    -16.39156658	     16.00192723	     -9.14183774	     -0.32313115	      7.61071417	    -13.08952409	     -0.22845529	     19.00338108	      9.56994790	      1.01667011	     -2.94830414	      2.47693401	     -8.36336655	    -11.95116638	     -9.77302778	     -4.50119544	     15.81607020	     89.95437384	      0.00000000	      0.00000000	     11.16302586	     11.43007383	     15.52615718	     36.42668610	     89.95437384	      0.00000000	      0.00000000
      0.91000000	      0.91243876	     -1.17141654	      1.28377579	      0.45543256	      0.90507221	     -1.03095791	     25.31928178	     -1.29687040	    -14.45808830	    -24.08404892	     -0.42034595	      2.10222754	    -15.22866454	     15.48648854	     -9.03504224	     -0.60574088	      7.64375808	    -13.24904014	     -0.23123937	     19.20821504	      9.47293133	      0.99647937	     -2.31936937	      2.19499567	     -8.30348527	    -12.61627341	     -9.80026716	     -4.77178650	     15.84382614	     89.95437384	      0.00000000	      0.00000000	     11.37478996	     11.51845404	     15.48982619	     37.95742487	     89.95437384	      0.00000000	      0.00000000
      0.92000000	      1.00563282	     -1.48704080	      1.53682674	      0.46651410	      0.90349366	     -1.03046166	     24.92718111	     -1.18145456	    -16.83380652	    -21.16661368	     -0.36942710	      0.12235370	    -14.07637141	      4.39002504	     -9.84363401	     -0.11302985	      7.43644088	    -13.37881491	     -0.23350437	     19.58855874	      9.34055242	      0.77490260	     -2.42833900	      2.54122131	     -8.62446319	    -13.00054925	     -9.68433965	     -5.93834091	     15.47738114	     89.95437384	      0.00000000	      0.00000000	     11.44528975	     11.60714569	     15.42007157	     39.63515165	     89.95437384	      0.00000000	      0.00000000
      0.93000000	      0.76774945	     -1.62076104	      1.62765660	      0.47727733	      0.90133124	     -1.02976678	     25.11586022	     -1.02079706	    -18.29404594	    -18.93590836	     -0.33049395	     -0.25874041	    -12.07760100	      1.20167628	    -10.20178414	      0.16382976	      7.40105758	    -13.66396147	     -0.23848112	     19.81963602	      9.22299089	      0.59553991	     -2.20553137	      2.68339690	     -8.80843908	    -13.48148085	     -9.67019840	     -6.49926160	     15.32196437	     89.95437384	      0.00000000	      0.00000000	     11.48491805	     11.65908290	     15.46072077	     41.21619013	     89.95437384	      0.00000000	      0.00000000
      0.94000000	      0.28003852	     -1.66501389	      1.68725939	      0.48787217	      0.89880589	     -1.02884322	     25.69963303	     -0.76401934	    -18.68936043	    -17.22819314	     -0.30068869	     -0.21426674	    -10.80452073	      0.82990702	    -10.24722644	      0.33080246	      7.23962011	    -14.00664828	     -0.24446213	     20.04570694	      9.16034447	      0.56634452	     -1.71891805	      2.69708554	     -8.98704011	    -13.99887647	     -9.66836241	     -6.74291752	     15.29976317	     89.95437384	      0.00000000	      0.00000000	     11.43186904	     11.79101558	     15.34517714	     42.74601825	     89.95437384	      0.00000000	      0.00000000
      0.95000000	      0.52526904	     -2.02439899	      2.11144481	      0.49965952	      0.89738589	     -1.02833830	     25.47799090	     -0.70278455	    -21.29019415	    -16.23516764	     -0.28335713	      0.32987184	     -7.05291573	     -3.21723742	    -11.09434591	      1.02404743	      7.37741364	    -14.38355638	     -0.25104042	     20.13240517	      8.40341373	      0.11397375	     -1.93043297	      3.09378669	     -9.43911207	    -14.36858187	     -9.59061623	     -7.78648614	     15.06613451	     89.95437384	      0.00000000	      0.00000000	     11.42618529	     11.78671616	     15.36200108	     44.12976980	     89.95437384	      0.00000000	      0.00000000
